<?xml version="1.0" encoding="utf-8"?>
<!-- Generator: Adobe Illustrator 25.0.1, SVG Export Plug-In . SVG Version: 6.00 Build 0)  -->
<svg version="1.1" id="圖層_1" xmlns="http://www.w3.org/2000/svg" xmlns:xlink="http://www.w3.org/1999/xlink" x="0px" y="0px"
	 viewBox="0 0 62.2 62.2" style="enable-background:new 0 0 62.2 62.2;" xml:space="preserve">
<style type="text/css">
	.st0{fill:#F2F2F2;stroke:#CCCCCC;stroke-width:0.8897;stroke-miterlimit:10;}
</style>
<g id="圖層_2_1_">
	<g id="圖層_1-2">
		<path class="st0" d="M23,58.7c-5.3,0-9.8-4.3-10-9.6C10.6,49,8.2,48,6.4,46.2c-3.9-3.9-3.9-10.2,0-14.1c2.6-2.6,6.3-3.6,9.9-2.6
			l13.3-13.3C28,10.9,31.1,5.4,36.5,3.8s10.8,1.5,12.3,6.9c0.2,0.7,0.4,1.5,0.4,2.3c2.5,0.1,4.9,1.2,6.7,2.9l0,0
			c3.9,3.9,3.9,10.2,0,14.1c-2.6,2.6-6.4,3.6-9.9,2.6L32.7,45.9c1.5,5.3-1.5,10.9-6.9,12.5C24.9,58.7,23.9,58.7,23,58.7z"/>
	</g>
</g>
</svg>
