<svg xmlns="http://www.w3.org/2000/svg" viewBox="0 0 7.93 14.79"><defs><style>.cls-1{fill:#00907c;}.cls-2{fill:#fff;opacity:0.45;}</style></defs><g id="圖層_1" data-name="圖層 1"><path class="cls-1" d="M6.35,0H1.58C.44,0-.22,1.73.06,3.6L1.57,13.69a1.28,1.28,0,0,0,1.2,1.1H5.16a1.26,1.26,0,0,0,1.19-1.1L7.86,3.6C8.14,1.73,7.48,0,6.35,0ZM5.5,2.81h-3a.74.74,0,0,1,0-1.48h3a.74.74,0,0,1,0,1.48Z"/><path class="cls-2" d="M3,13.44a.26.26,0,0,1-.17-.21l-.38-1.66c-.13-.88,0-1.13.31-1.23a4.54,4.54,0,0,1,2.48,0c.3.12.44.35.31,1.23l-.42,1.66a.26.26,0,0,1-.17.21Z"/></g></svg>