<svg xmlns="http://www.w3.org/2000/svg" viewBox="0 0 25.2 20.76"><defs><style>.cls-1{fill:#49322d;}</style></defs><g id="圖層_2" data-name="圖層 2"><g id="圖層_1-2" data-name="圖層 1"><g id="Group_518" data-name="Group 518"><path id="Path_424" data-name="Path 424" class="cls-1" d="M19,10.48a10.48,10.48,0,0,0-12.88,0,6.6,6.6,0,0,0-2.8,5c0,3.27,3.54,5.3,9.24,5.3s9.24-2,9.24-5.3A6.6,6.6,0,0,0,19,10.48Z"/><path id="Path_425" data-name="Path 425" class="cls-1" d="M12.61,6.91A3.47,3.47,0,1,0,8.75,3.47,3.68,3.68,0,0,0,12.61,6.91Z"/><path id="Path_426" data-name="Path 426" class="cls-1" d="M25,5.85a4.26,4.26,0,0,0-4.61-2.66,3.15,3.15,0,0,0-2.66,3.55,3,3,0,0,0,.2.72A4.13,4.13,0,0,0,19.74,9.6a4.34,4.34,0,0,0,2.11.58,3.68,3.68,0,0,0,.66-.06,3.12,3.12,0,0,0,2.66-3.55A3.06,3.06,0,0,0,25,5.85Z"/><path id="Path_427" data-name="Path 427" class="cls-1" d="M7.25,7.46A3.12,3.12,0,0,0,5.51,3.39a3.09,3.09,0,0,0-.72-.2A4.12,4.12,0,0,0,2,3.72,3.65,3.65,0,0,0,.37,8.59h0a3.25,3.25,0,0,0,2.27,1.53,3.68,3.68,0,0,0,.66.06A4.14,4.14,0,0,0,5.41,9.6,4.07,4.07,0,0,0,7.25,7.46Z"/></g></g></g></svg>