<svg xmlns="http://www.w3.org/2000/svg" viewBox="0 0 357.29 312.24"><defs><style>.cls-1{fill:#555;}</style></defs><g id="cart-icon_2" data-name="cart-icon 2"><g id="cart-icon_1-2" data-name="cart-icon 1"><path id="Path_54" data-name="Path 54" class="cls-1" d="M341.18,0H296a15.72,15.72,0,0,0-15,11.05l-16.17,52H15.71a15.7,15.7,0,0,0-15,20.43l44.1,139.75a3.89,3.89,0,0,0,.21.51,47.86,47.86,0,1,0,62.57,10.48h74.08A47.87,47.87,0,1,0,249,227.14c-.81-.65-1.64-1.28-2.5-1.89a15.57,15.57,0,0,0,.82-2L291.42,83.52h0l16.17-52H341.2A15.71,15.71,0,0,0,342,.06h-.75ZM70.39,280.8a16.44,16.44,0,1,1,16.43-16.43h0A16.42,16.42,0,0,1,70.39,280.8Zm148.5,0a16.44,16.44,0,1,1,16.43-16.43h0A16.43,16.43,0,0,1,218.89,280.8Zm1.89-77.92H71.35L37.17,94.55H255Z"/></g></g></svg>