<svg xmlns="http://www.w3.org/2000/svg" viewBox="0 0 72.16 68.06"><path data-name="Path 107" d="M59.68,8.07H58.26V3.38a3.47,3.47,0,0,0-6.93,0V8.07H39.54V3.38a3.46,3.46,0,0,0-6.92,0V8.07H20.82V3.38a3.46,3.46,0,0,0-6.92,0V8.07H12.47A12.48,12.48,0,0,0,0,20.54v35A12.49,12.49,0,0,0,12.47,68.06H59.69A12.48,12.48,0,0,0,72.16,55.58v-35A12.47,12.47,0,0,0,59.68,8.07ZM12.47,15H59.68a5.57,5.57,0,0,1,5.56,5.55v2.55H6.92V20.54A5.55,5.55,0,0,1,12.47,15ZM59.68,61.13H12.47a5.54,5.54,0,0,1-5.55-5.55V30H65.24V55.58A5.55,5.55,0,0,1,59.68,61.13Z"/><path  data-name="Path 108" d="M34,44.27A3.94,3.94,0,0,0,35.27,43a3.76,3.76,0,0,0,.45-2,5,5,0,0,0-.38-2,4.36,4.36,0,0,0-1.1-1.52,5.23,5.23,0,0,0-1.72-1,7.42,7.42,0,0,0-4.52,0,5.06,5.06,0,0,0-1.81,1,5.49,5.49,0,0,0-1.27,1.71,6.94,6.94,0,0,0-.65,2.31h4a1.88,1.88,0,0,1,.48-1.36A1.63,1.63,0,0,1,30,39.74a1.68,1.68,0,0,1,1.22.46,1.6,1.6,0,0,1,.47,1.21,1.67,1.67,0,0,1-.5,1.25,1.86,1.86,0,0,1-1.32.49h-.21l-.29,0v2.71l.44-.07a2,2,0,0,1,.42,0,2.29,2.29,0,0,1,1.52.55,2,2,0,0,1,.63,1.63,2.25,2.25,0,0,1-.52,1.52A2.11,2.11,0,0,1,30.2,50a2.39,2.39,0,0,1-1.71-.61,2.47,2.47,0,0,1-.69-1.77H23.54a6.55,6.55,0,0,0,.14,1.47,4.47,4.47,0,0,0,.56,1.46A5.71,5.71,0,0,0,26.7,53a7.81,7.81,0,0,0,3.46.74,8.11,8.11,0,0,0,2.63-.4,6.21,6.21,0,0,0,2.07-1.12,5,5,0,0,0,1.84-4A4.29,4.29,0,0,0,36,45.68,3.68,3.68,0,0,0,34,44.27Z"/><path data-name="Path 109" d="M39.77,40.32h2.42V53.26H46.5V36.66H39.77Z"/></svg>