<svg xmlns="http://www.w3.org/2000/svg" viewBox="0 0 48.03 39.5"><path id="Path_443" data-name="Path 443" class="cls-222" d="M36.25,20a19.87,19.87,0,0,0-24.49,0,12.53,12.53,0,0,0-5.34,9.47C6.42,35.63,13.16,39.5,24,39.5s17.59-3.86,17.59-10.08A12.56,12.56,0,0,0,36.25,20Z"/><path id="Path_444" data-name="Path 444" class="cls-222" d="M24.06,13.15A6.6,6.6,0,1,0,16.72,6.6,7,7,0,0,0,24.06,13.15Z"/><path id="Path_445" data-name="Path 445" class="cls-222" d="M47.6,11.14a8.1,8.1,0,0,0-8.77-5.06,6,6,0,0,0-4.69,8.12,7.88,7.88,0,0,0,3.5,4.07,8.05,8.05,0,0,0,4,1.1,7.45,7.45,0,0,0,1.25-.11A6,6,0,0,0,48,12.51a6.54,6.54,0,0,0-.37-1.38Z"/><path id="Path_446" data-name="Path 446" class="cls-222" d="M13.86,14.2A6,6,0,0,0,9.17,6.07a7.9,7.9,0,0,0-5.27,1C.39,9.09-1,13.25.77,16.34h0A6.13,6.13,0,0,0,5.1,19.26a7.45,7.45,0,0,0,1.25.11,8.05,8.05,0,0,0,4-1.1A7.88,7.88,0,0,0,13.86,14.2Z"/><</svg>