<svg xmlns="http://www.w3.org/2000/svg" viewBox="0 0 274.17 264.67"><defs><style>.cls-1{fill:#555;}</style></defs><g id="user-icon_2" data-name="user-icon 2"><g id="user-icon_1-2" data-name="user-icon 1"><path id="Path_113" data-name="Path 113" class="cls-1" d="M180,112.49a65.64,65.64,0,1,0-92.83-.86q1.23,1.26,2.52,2.43A145.24,145.24,0,0,0,0,250.27a14.48,14.48,0,0,0,14.4,14.4H256.3a14.22,14.22,0,0,1,3.45,0,14.47,14.47,0,0,0,14.4-14.4A144.83,144.83,0,0,0,180,112.49ZM134,29A36.83,36.83,0,1,1,97.19,65.8,36.83,36.83,0,0,1,134,29ZM29.59,235.87a107.6,107.6,0,0,1,214.91,0Z"/></g></g></svg>