<?xml version="1.0" encoding="utf-8"?>
<!-- Generator: Adobe Illustrator 25.0.0, SVG Export Plug-In . SVG Version: 6.00 Build 0)  -->
<svg version="1.1" id="圖層_1" xmlns="http://www.w3.org/2000/svg" xmlns:xlink="http://www.w3.org/1999/xlink" x="0px" y="0px"
	 viewBox="0 0 70.7 70.2" style="enable-background:new 0 0 70.7 70.2;" xml:space="preserve">
<style type="text/css">
	.st0{fill:#495057;}
</style>
<g id="圖層_2_1_">
	<g id="圖層_1-2">
		<path class="st0" d="M59.3,21.4H48.8v-8C48.8,6,42.8,0,35.4,0c-7.4,0-13.4,6-13.4,13.4v8H11.4C5.1,21.4,0,26.5,0,32.8v26
			c0,6.3,5.1,11.4,11.4,11.4h47.9c6.3,0,11.4-5.1,11.4-11.4v-26C70.7,26.5,65.6,21.4,59.3,21.4z M28.9,13.4c0-3.6,2.9-6.4,6.4-6.4
			c3.5,0,6.4,2.9,6.4,6.4v8H28.9L28.9,13.4z M63.7,58.8c0,2.4-2,4.4-4.4,4.4H11.4c-2.4,0-4.4-2-4.4-4.4v-26c0-2.4,2-4.4,4.4-4.4
			h47.9c2.4,0,4.4,2,4.4,4.4V58.8z"/>
		<path class="st0" d="M35.4,32.4c-5.5,0-9.9,4.5-9.9,10c0,4.1,2.6,7.8,6.4,9.3v4.3c0,1.9,1.6,3.5,3.5,3.5s3.5-1.6,3.5-3.5v-4.3
			c5.1-1.9,7.7-7.7,5.8-12.8C43.2,34.9,39.5,32.4,35.4,32.4z M35.4,39.4c1.7,0,3,1.3,3,3s-1.3,3-3,3s-3-1.3-3-3S33.7,39.4,35.4,39.4
			z"/>
	</g>
</g>
</svg>
