<svg xmlns="http://www.w3.org/2000/svg" viewBox="0 0 64.1 77.68"><defs><style>.cls-1{fill:#3c2e26;}</style></defs><g id="圖層_2" data-name="圖層 2"><g id="圖層_1-2" data-name="圖層 1"><path class="cls-1" d="M60.6,59a6.13,6.13,0,0,1-6.12-6.13V38.22A23.48,23.48,0,0,0,40.6,16.57a10.39,10.39,0,0,0,1.95-6.07,10.5,10.5,0,1,0-19.06,6.07A23.49,23.49,0,0,0,9.62,38.22V52.88A6.13,6.13,0,0,1,3.5,59a3.5,3.5,0,0,0,0,7H21.21a3.67,3.67,0,0,0-.08.75,10.92,10.92,0,0,0,21.84,0,3.67,3.67,0,0,0-.08-.75H60.6a3.5,3.5,0,0,0,0-7ZM32.05,7a3.5,3.5,0,1,1-3.5,3.5A3.5,3.5,0,0,1,32.05,7ZM16.62,52.89V38.22c0-9.06,6.92-16.43,15.43-16.43s15.43,7.37,15.43,16.43V52.88A13,13,0,0,0,49,59H15.1A13,13,0,0,0,16.62,52.89ZM36,66.76a3.92,3.92,0,0,1-7.84,0A3.66,3.66,0,0,0,28,66h8A3.66,3.66,0,0,0,36,66.76Z"/></g></g></svg>