<svg xmlns="http://www.w3.org/2000/svg" viewBox="0 0 84.89 58.11"><defs><style>.cls-1{fill:#3c2e26;}</style></defs><g id="圖層_2" data-name="圖層 2"><g id="圖層_1-2" data-name="圖層 1"><path class="cls-1" d="M71.72,58.11H13.17A13.18,13.18,0,0,1,0,45V13.17A13.19,13.19,0,0,1,13.17,0H71.72A13.19,13.19,0,0,1,84.89,13.17V45A13.18,13.18,0,0,1,71.72,58.11ZM13.17,7A6.18,6.18,0,0,0,7,13.17V45a6.17,6.17,0,0,0,6.17,6.16H71.72A6.17,6.17,0,0,0,77.89,45V13.17A6.18,6.18,0,0,0,71.72,7Z"/><path class="cls-1" d="M28.39,35.21H21.86l-1.05,3.06H15.94l6.69-17.58h5l6.69,17.58H29.43Zm-1.22-3.47-2.05-5.85-2.05,5.85Z"/><path class="cls-1" d="M42.21,24.56V38.27H37.64V24.56H33.89V20.69H46v3.87Z"/><path class="cls-1" d="M47.2,38.27l3-17.58H54.7l3.52,9.37,3.5-9.37h4.52l3,17.58H64.68L63.16,28.15,59,38.27H57.2L53.26,28.15,51.74,38.27Z"/></g></g></svg>