<svg xmlns="http://www.w3.org/2000/svg" viewBox="0 0 62.22 62.2"><defs><style>.cls-1{fill:#3c2e26;}</style></defs><g id="圖層_2" data-name="圖層 2"><g id="圖層_1-2" data-name="圖層 1"><path class="cls-1" d="M22.07,62.2A11.23,11.23,0,0,1,10.82,51.39,11.31,11.31,0,0,1,3.3,48.11,11.27,11.27,0,0,1,14.37,29.3L29.31,14.36a11.27,11.27,0,1,1,22.1-3.56,11.27,11.27,0,0,1,7.5,3.29h0A11.27,11.27,0,0,1,47.8,32.89L32.9,47.8A11.26,11.26,0,0,1,22.07,62.2Zm-6.61-19a3.51,3.51,0,0,1,2.49,1,3.59,3.59,0,0,1,.52,4.41,4.27,4.27,0,1,0,7.28.14,3.5,3.5,0,0,1,.54-4.26L44.52,26.28a3.5,3.5,0,0,1,4.25-.54A4.27,4.27,0,0,0,54,19h0a4.27,4.27,0,0,0-5.41-.52,3.5,3.5,0,0,1-4.86-4.86,4.27,4.27,0,1,0-7.23-.24,3.51,3.51,0,0,1-.55,4.24L17.66,35.9a3.48,3.48,0,0,1-4.23.55,4.28,4.28,0,0,0-5.18.67,4.27,4.27,0,0,0,0,6,4.3,4.3,0,0,0,5.33.58A3.48,3.48,0,0,1,15.46,43.19Z"/></g></g></svg>