<svg xmlns="http://www.w3.org/2000/svg" viewBox="0 0 72.96 68.88"><defs><style>.cls-1{fill:#3c2e26;}</style></defs><g id="圖層_2" data-name="圖層 2"><g id="圖層_1-2" data-name="圖層 1"><path class="cls-1" d="M60.34,8.24H58.9V3.5a3.5,3.5,0,0,0-7,0V8.24H40V3.5a3.5,3.5,0,0,0-7,0V8.24H21.06V3.5a3.5,3.5,0,0,0-7,0V8.24H12.61A12.62,12.62,0,0,0,0,20.85V56.27A12.62,12.62,0,0,0,12.61,68.88H60.34A12.62,12.62,0,0,0,73,56.27V20.85A12.62,12.62,0,0,0,60.34,8.24Zm-47.73,7H60.34A5.62,5.62,0,0,1,66,20.85v2.57H7V20.85A5.61,5.61,0,0,1,12.61,15.24ZM60.34,61.88H12.61A5.61,5.61,0,0,1,7,56.27V30.42H66V56.27A5.62,5.62,0,0,1,60.34,61.88Z"/><path class="cls-1" d="M34.36,44.84a4,4,0,0,0,1.3-1.32,3.76,3.76,0,0,0,.46-2,5.05,5.05,0,0,0-.39-2A4.25,4.25,0,0,0,34.62,38a5.18,5.18,0,0,0-1.74-1,7,7,0,0,0-2.26-.35,7.08,7.08,0,0,0-2.31.37,5.39,5.39,0,0,0-1.83,1.07,5.73,5.73,0,0,0-1.28,1.72,7.33,7.33,0,0,0-.65,2.34h4a2,2,0,0,1,.48-1.38,1.87,1.87,0,0,1,2.53-.07A1.65,1.65,0,0,1,32.07,42a1.69,1.69,0,0,1-.51,1.27,1.89,1.89,0,0,1-1.34.49H30l-.3,0v2.74l.45-.08a2.77,2.77,0,0,1,.42,0,2.27,2.27,0,0,1,1.53.56,2.05,2.05,0,0,1,.65,1.64,2.28,2.28,0,0,1-.54,1.54,2.12,2.12,0,0,1-1.69.62,2.41,2.41,0,0,1-1.73-.61,2.49,2.49,0,0,1-.69-1.79H23.79a7.46,7.46,0,0,0,.15,1.49,4.67,4.67,0,0,0,.56,1.47,5.72,5.72,0,0,0,2.5,2.4,7.78,7.78,0,0,0,3.49.76,8.38,8.38,0,0,0,2.66-.4,6.38,6.38,0,0,0,2.09-1.14,5.07,5.07,0,0,0,1.86-4,4.36,4.36,0,0,0-.72-2.55A3.79,3.79,0,0,0,34.36,44.84Z"/><polygon class="cls-1" points="40.22 40.84 42.66 40.84 42.66 53.92 47.02 53.92 47.02 37.14 40.22 37.14 40.22 40.84"/></g></g></svg>