<svg xmlns="http://www.w3.org/2000/svg" viewBox="0 0 79.51 69.55"><defs><style>.cls-1{fill:#3c2e26;}</style></defs><g id="圖層_2" data-name="圖層 2"><g id="圖層_1-2" data-name="圖層 1"><path class="cls-1" d="M76,0H65.94A3.5,3.5,0,0,0,62.6,2.46L59,14.06H3.5A3.49,3.49,0,0,0,.68,15.49a3.53,3.53,0,0,0-.52,3.13L10,49.75s0,.07,0,.11A10.67,10.67,0,1,0,24,52.2h16.5a10.67,10.67,0,1,0,14.44-2,3.38,3.38,0,0,0,.18-.44l9.82-31.13h0L68.52,7H76a3.5,3.5,0,0,0,0-7ZM15.68,62.55a3.66,3.66,0,1,1,3.67-3.66A3.66,3.66,0,0,1,15.68,62.55Zm33.08,0a3.66,3.66,0,1,1,3.67-3.66A3.66,3.66,0,0,1,48.76,62.55Zm.43-17.35H15.89L8.27,21.06H56.8Z"/></g></g></svg>