<svg xmlns="http://www.w3.org/2000/svg" viewBox="0 0 84.89 58.11"><defs><style>.cls-1{fill:#3c2e26;}</style></defs><g id="圖層_2" data-name="圖層 2"><g id="圖層_1-2" data-name="圖層 1"><path class="cls-1" d="M71.72,0H13.17A13.19,13.19,0,0,0,0,13.17V45A13.18,13.18,0,0,0,13.17,58.11H71.72A13.18,13.18,0,0,0,84.89,45V13.17A13.19,13.19,0,0,0,71.72,0Zm6.17,45a6.17,6.17,0,0,1-6.17,6.16H13.17A6.17,6.17,0,0,1,7,45V13.17A6.18,6.18,0,0,1,13.17,7H71.72a6.18,6.18,0,0,1,6.17,6.17Z"/><path class="cls-1" d="M48,27.07H44.44v-5h6.49a2,2,0,0,0,0-4H44.44V15.6a2,2,0,0,0-4,0v2.49H36.87a6.49,6.49,0,0,0,0,13h3.56v5H33.91a2,2,0,1,0,0,4h6.53v2.5a2,2,0,1,0,4,0V40H48a6.48,6.48,0,1,0,0-13Zm-11.15,0a2.49,2.49,0,0,1,0-5h3.57v5ZM48,36H44.44v-5H48a2.48,2.48,0,1,1,0,5Z"/></g></g></svg>