<svg xmlns="http://www.w3.org/2000/svg" viewBox="0 0 62.67 69.65"><defs><style>.cls-1{fill:#3c2e26;}</style></defs><g id="圖層_2" data-name="圖層 2"><g id="圖層_1-2" data-name="圖層 1"><path class="cls-1" d="M52.3,0H24.92A10.38,10.38,0,0,0,14.55,10.37v3.34H10.37A10.38,10.38,0,0,0,0,24.08v35.2A10.39,10.39,0,0,0,10.37,69.65H37.75A10.39,10.39,0,0,0,48.12,59.28V55.94H52.3A10.39,10.39,0,0,0,62.67,45.56V10.37A10.38,10.38,0,0,0,52.3,0ZM41.12,55.94v3.34a3.38,3.38,0,0,1-3.37,3.37H10.37A3.38,3.38,0,0,1,7,59.28V24.08a3.37,3.37,0,0,1,3.37-3.37H37.75a3.37,3.37,0,0,1,3.37,3.37V55.94ZM55.67,45.56a3.38,3.38,0,0,1-3.37,3.38H48.12V24.08A10.38,10.38,0,0,0,37.75,13.71H21.55V10.37A3.37,3.37,0,0,1,24.92,7H52.3a3.37,3.37,0,0,1,3.37,3.37Z"/></g></g></svg>