<svg xmlns="http://www.w3.org/2000/svg" viewBox="0 0 68.24 68.23"><defs><style>.cls-1{fill:#3c2e26;}</style></defs><g id="圖層_2" data-name="圖層 2"><g id="圖層_1-2" data-name="圖層 1"><path class="cls-1" d="M67.21,14.83,53.41,1a3.49,3.49,0,0,0-4.95,0l-39,39a3.47,3.47,0,0,0-.88,1.5L.23,63.5A3.49,3.49,0,0,0,3.5,68.23,3.53,3.53,0,0,0,4.74,68l21.83-8.27a3.5,3.5,0,0,0,1.6-.91l39-39A3.49,3.49,0,0,0,67.21,14.83ZM13.6,48l6.68,6.68L9.52,58.71Zm12.72,2.82-8.86-8.86L42.1,17.28,51,26.14ZM55.91,21.19l-8.86-8.86,3.88-3.88,8.86,8.85Z"/></g></g></svg>