<svg xmlns="http://www.w3.org/2000/svg" viewBox="0 0 69.41 69.41"><defs><style>.cls-1{fill:#3c2e26;}</style></defs><g id="圖層_2" data-name="圖層 2"><g id="圖層_1-2" data-name="圖層 1"><path class="cls-1" d="M56.35,0H13.06A13.08,13.08,0,0,0,0,13.06V56.35A13.08,13.08,0,0,0,13.06,69.41H56.35A13.08,13.08,0,0,0,69.41,56.35V13.06A13.08,13.08,0,0,0,56.35,0Zm6.06,56.35a6.07,6.07,0,0,1-6.06,6.06H42.67V39.81c1.78,0,3.51,0,5.25,0a.55.55,0,0,0,.6-.42c.81-2.07,1.65-4.13,2.47-6.19.06-.16.12-.32.19-.54H42.69a.61.61,0,0,1,0-.16c0-1.85,0-3.7,0-5.56A3.06,3.06,0,0,1,43,25.76a2.77,2.77,0,0,1,2.66-1.61h2.73V17a55.73,55.73,0,0,0-6.59,0,8.91,8.91,0,0,0-7.64,8.62c0,2.18,0,4.36,0,6.54v.52H28.44v7.11h5.7V62.41H13.06A6.07,6.07,0,0,1,7,56.35V13.06A6.07,6.07,0,0,1,13.06,7H56.35a6.07,6.07,0,0,1,6.06,6.06Z"/></g></g></svg>