<svg xmlns="http://www.w3.org/2000/svg" viewBox="0 0 69.41 69.41"><defs><style>.cls-1{fill:#3c2e26;}</style></defs><g id="圖層_2" data-name="圖層 2"><g id="圖層_1-2" data-name="圖層 1"><path class="cls-1" d="M56.35,69.41H13.06A13.08,13.08,0,0,1,0,56.35V13.06A13.08,13.08,0,0,1,13.06,0H56.35A13.08,13.08,0,0,1,69.41,13.06V56.35A13.08,13.08,0,0,1,56.35,69.41ZM13.06,7A6.07,6.07,0,0,0,7,13.06V56.35a6.07,6.07,0,0,0,6.06,6.06H56.35a6.07,6.07,0,0,0,6.06-6.06V13.06A6.07,6.07,0,0,0,56.35,7Z"/><path class="cls-1" d="M34.71,51.31A16.61,16.61,0,1,1,46.45,23l-5,4.95A9.61,9.61,0,1,0,43.65,38.2H35v-7H51.31v3.5A16.63,16.63,0,0,1,34.71,51.31Z"/></g></g></svg>