<svg xmlns="http://www.w3.org/2000/svg" viewBox="0 0 62.64 65"><defs><style>.cls-1{fill:#3c2e26;}</style></defs><g id="圖層_2" data-name="圖層 2"><g id="圖層_1-2" data-name="圖層 1"><path class="cls-1" d="M31.31,65A3.48,3.48,0,0,1,29,64.09C27.9,63.13,3.36,40.49.37,20.86A17,17,0,0,1,0,17.33a16.37,16.37,0,0,1,.13-2A13,13,0,0,1,1.78,9.7,17.34,17.34,0,0,1,31.32,7.07,17.33,17.33,0,0,1,60.89,9.78a12.84,12.84,0,0,1,1.6,5.38,17.22,17.22,0,0,1,.15,2.17,17.42,17.42,0,0,1-.4,3.64C59.17,40.58,34.71,63.13,33.67,64.09A3.48,3.48,0,0,1,31.31,65Z"/></g></g></svg>