<svg xmlns="http://www.w3.org/2000/svg" viewBox="0 0 62.64 65"><defs><style>.cls-1{fill:#3c2e26;}</style></defs><g id="圖層_2" data-name="圖層 2"><g id="圖層_1-2" data-name="圖層 1"><path class="cls-1" d="M31.31,65A3.48,3.48,0,0,1,29,64.09C27.9,63.13,3.36,40.49.37,20.86A17,17,0,0,1,0,17.33a16.37,16.37,0,0,1,.13-2A13,13,0,0,1,1.78,9.7,17.34,17.34,0,0,1,31.32,7.07,17.33,17.33,0,0,1,60.89,9.78a12.84,12.84,0,0,1,1.6,5.38,17.22,17.22,0,0,1,.15,2.17,17.42,17.42,0,0,1-.4,3.64C59.17,40.58,34.71,63.13,33.67,64.09A3.48,3.48,0,0,1,31.31,65Zm-14-58A10.39,10.39,0,0,0,8,12.89a1.9,1.9,0,0,1-.2.37,6.13,6.13,0,0,0-.71,2.68.59.59,0,0,1,0,.14A12.15,12.15,0,0,0,7,17.33a10.74,10.74,0,0,0,.23,2.17,1.7,1.7,0,0,1,0,.22c2.07,13.93,18,30.87,24,36.92,6.08-6,21.9-22.92,24-36.84,0-.07,0-.15,0-.23a10.21,10.21,0,0,0,.26-2.24,12.11,12.11,0,0,0-.1-1.34.77.77,0,0,1,0-.15,6,6,0,0,0-.69-2.56c-.07-.11-.13-.23-.19-.34A10.31,10.31,0,0,0,35,17a3.49,3.49,0,0,1-1.56,2.79l-.16.11a3.5,3.5,0,0,1-3.93,0l-.15-.11A3.49,3.49,0,0,1,27.64,17,10.28,10.28,0,0,0,17.33,7Z"/></g></g></svg>