<svg xmlns="http://www.w3.org/2000/svg" viewBox="0 0 80.02 74.04"><defs><style>.cls-1{fill:#3c2e26;}</style></defs><g id="圖層_2" data-name="圖層 2"><g id="圖層_1-2" data-name="圖層 1"><path class="cls-1" d="M79,36.91,42.46,1a3.51,3.51,0,0,0-4.9,0L1.05,36.91a3.5,3.5,0,0,0,2.45,6h8.25V70.54a3.5,3.5,0,0,0,3.5,3.5H64.77a3.5,3.5,0,0,0,3.5-3.5V42.91h8.25a3.51,3.51,0,0,0,2.46-6ZM37.09,66.45V43.26h5.84V66.45ZM64.77,35.91a3.49,3.49,0,0,0-3.5,3.5V67H49.93V39.76a3.5,3.5,0,0,0-3.5-3.5H33.59a3.5,3.5,0,0,0-3.5,3.5V67H18.75V39.41a3.49,3.49,0,0,0-3.5-3.5h-3.2L40,8.41l28,27.5Z"/></g></g></svg>