<svg xmlns="http://www.w3.org/2000/svg" viewBox="0 0 69.41 69.41"><defs><style>.cls-1{fill:#3c2e26;}</style></defs><g id="圖層_2" data-name="圖層 2"><g id="圖層_1-2" data-name="圖層 1"><circle class="cls-1" cx="51.24" cy="18.15" r="3.93"/><path class="cls-1" d="M56.35,69.41H13.06A13.08,13.08,0,0,1,0,56.35V13.06A13.08,13.08,0,0,1,13.06,0H56.35A13.08,13.08,0,0,1,69.41,13.06V56.35A13.08,13.08,0,0,1,56.35,69.41ZM13.06,7A6.07,6.07,0,0,0,7,13.06V56.35a6.07,6.07,0,0,0,6.06,6.06H56.35a6.07,6.07,0,0,0,6.06-6.06V13.06A6.07,6.07,0,0,0,56.35,7Z"/><path class="cls-1" d="M34.71,50.19A15.49,15.49,0,1,1,50.19,34.7,15.51,15.51,0,0,1,34.71,50.19Zm0-24a8.49,8.49,0,1,0,8.48,8.48A8.5,8.5,0,0,0,34.71,26.22Z"/></g></g></svg>