<svg xmlns="http://www.w3.org/2000/svg" viewBox="0 0 69.41 69.41"><defs><style>.cls-1{fill:#3c2e26;}</style></defs><g id="圖層_2" data-name="圖層 2"><g id="圖層_1-2" data-name="圖層 1"><path class="cls-1" d="M56.35,0H13.06A13.08,13.08,0,0,0,0,13.06V56.35A13.08,13.08,0,0,0,13.06,69.41H56.35A13.08,13.08,0,0,0,69.41,56.35V13.06A13.08,13.08,0,0,0,56.35,0Zm6.06,56.35a6.07,6.07,0,0,1-6.06,6.06H13.06A6.07,6.07,0,0,1,7,56.35V13.06A6.07,6.07,0,0,1,13.06,7H56.35a6.07,6.07,0,0,1,6.06,6.06Z"/><path class="cls-1" d="M29.45,15.28c-9.59,2.21-15.79,8.91-15.79,17.09,0,8.8,7.64,16.19,18.11,17.56,0,.17-.06.35-.09.5-.07.44-.15.93-.2,1.37a3.21,3.21,0,0,0,1,3.18,3,3,0,0,0,1.89.61,5.3,5.3,0,0,0,2-.44c2.34-1,11.86-6.9,16.14-11.74,4.89-5.29,6.06-11.7,3.21-17.58C50.74,15.58,38.61,13.17,29.45,15.28Zm3.11,30.28c-8.29-1.09-14.3-6.63-14.3-13.19C18.26,25,24.58,21,30.5,19.59A23.55,23.55,0,0,1,35.73,19c6.25,0,12.81,2.48,15.82,8.7,2,4.2,1.13,8.85-2.49,12.76l0,0c-3.11,3.52-9.4,7.73-12.69,9.63C36.5,48.34,36.12,46.29,32.56,45.56Z"/><path class="cls-1" d="M27.82,35.07H25.73V29.23a1.33,1.33,0,0,0-2.6,0v6.9a1.19,1.19,0,0,0,1.3,1.06h3.39C29.54,37.19,29.54,35.07,27.82,35.07Z"/><path class="cls-1" d="M29.91,29.23c.39,5.32-1,8,1.3,8a1.2,1.2,0,0,0,1.3-1.06v-6.9C32.51,27.83,29.91,27.82,29.91,29.23Z"/><path class="cls-1" d="M43.07,37.19h3.38c1.72,0,1.72-2.11,0-2.11H44.36V33.74h2.09c1.72,0,1.72-2.12,0-2.12H44.36V30.29h2.09c1.72,0,1.72-2.12,0-2.12H43.07a1.19,1.19,0,0,0-1.3,1.06v6.9A1.19,1.19,0,0,0,43.07,37.19Z"/><path class="cls-1" d="M39.68,37.19a2,2,0,0,0,.34,0,1.13,1.13,0,0,0,1-1v-6.9c0-1.4-2.6-1.41-2.6,0v3.08l-2.67-3.63c-.68-.92-2.42-.52-2.42.55v6.91a1.33,1.33,0,0,0,2.6,0V33.05l2.67,3.63A1.4,1.4,0,0,0,39.68,37.19Z"/></g></g></svg>