<svg xmlns="http://www.w3.org/2000/svg" viewBox="0 0 59.27 83.49"><defs><style>.cls-1{fill:#3c2e26;}</style></defs><g id="圖層_2" data-name="圖層 2"><g id="圖層_1-2" data-name="圖層 1"><path class="cls-1" d="M29.64,83.49a3.47,3.47,0,0,1-2.83-1.44C24.06,78.28,0,44.77,0,29.64a29.64,29.64,0,1,1,59.27,0c0,15.13-24.06,48.64-26.8,52.41A3.5,3.5,0,0,1,29.64,83.49ZM29.64,7A22.66,22.66,0,0,0,7,29.64c0,9.65,14.42,32.45,22.64,44.3,8.21-11.85,22.63-34.65,22.63-44.3A22.66,22.66,0,0,0,29.64,7Z"/><path class="cls-1" d="M29.41,43.39A13.71,13.71,0,1,1,43.12,29.68,13.73,13.73,0,0,1,29.41,43.39Zm0-20.41a6.71,6.71,0,1,0,6.71,6.7A6.72,6.72,0,0,0,29.41,23Z"/></g></g></svg>