<svg xmlns="http://www.w3.org/2000/svg" viewBox="0 0 66.67 64.33"><defs><style>.cls-1{fill:#3c2e26;}</style></defs><g id="圖層_2" data-name="圖層 2"><g id="圖層_1-2" data-name="圖層 1"><path class="cls-1" d="M43.79,27.31a16,16,0,1,0-22,.38C9.1,32.67,0,45.64,0,60.83a3.5,3.5,0,0,0,3.5,3.5H62.33a2.77,2.77,0,0,0,.42,0,3,3,0,0,0,.42,0,3.5,3.5,0,0,0,3.5-3.5C66.67,45.23,57.07,32,43.79,27.31ZM32.6,7a9,9,0,1,1-9,9A9,9,0,0,1,32.6,7ZM7.2,57.33c1.61-14,12.72-24.81,26.14-24.81S57.86,43.37,59.47,57.33Z"/></g></g></svg>