<svg xmlns="http://www.w3.org/2000/svg" viewBox="0 0 70.84 59.74"><defs><style>.cls-1{fill:#3c2e26;}</style></defs><g id="圖層_2" data-name="圖層 2"><g id="圖層_1-2" data-name="圖層 1"><path class="cls-1" d="M5.64,59.74a3.49,3.49,0,0,1-3.23-4.86l5-11.81C2.61,38.41,0,32.68,0,26.69,0,12,15.89,0,35.42,0S70.84,12,70.84,26.69,55,53.38,35.42,53.38a46.16,46.16,0,0,1-12.1-1.58L7.13,59.41A3.58,3.58,0,0,1,5.64,59.74ZM35.42,7C19.75,7,7,15.83,7,26.69c0,4.63,2.42,9.14,6.8,12.72a3.5,3.5,0,0,1,1,4.07l-2.41,5.71,9.12-4.29a3.54,3.54,0,0,1,2.52-.18,38.8,38.8,0,0,0,11.37,1.66c15.67,0,28.42-8.83,28.42-19.69S51.09,7,35.42,7Z"/><path class="cls-1" d="M22.16,30.66a4,4,0,0,1-.68-.06,4.15,4.15,0,0,1-.66-.2,4.3,4.3,0,0,1-.6-.32,3.73,3.73,0,0,1-1-1,4.3,4.3,0,0,1-.32-.6,4.15,4.15,0,0,1-.2-.66,4,4,0,0,1-.07-.68,3.55,3.55,0,0,1,1-2.48,3.12,3.12,0,0,1,.53-.43,3.51,3.51,0,0,1,.6-.33,4.1,4.1,0,0,1,.66-.19,3.48,3.48,0,0,1,4.18,3.43,4,4,0,0,1-.06.68,4.2,4.2,0,0,1-.21.66,2.89,2.89,0,0,1-.32.6,3.12,3.12,0,0,1-.43.53A3.52,3.52,0,0,1,22.16,30.66Z"/><path class="cls-1" d="M31.94,27.17a3.5,3.5,0,0,1,3.5-3.5h0a3.49,3.49,0,0,1,3.5,3.5h0a3.5,3.5,0,0,1-3.5,3.5h0A3.5,3.5,0,0,1,31.94,27.17Z"/><path class="cls-1" d="M48.72,30.67A4,4,0,0,1,48,30.6a3.75,3.75,0,0,1-.65-.2,4.3,4.3,0,0,1-.6-.32,3.84,3.84,0,0,1-.54-.44,3.69,3.69,0,0,1-.43-.53,2.89,2.89,0,0,1-.32-.6,3.32,3.32,0,0,1-.2-.66,3.14,3.14,0,0,1-.07-.68,3.54,3.54,0,0,1,1-2.48,3.12,3.12,0,0,1,.53-.43,3.6,3.6,0,0,1,.61-.33,3.72,3.72,0,0,1,.65-.19,3.5,3.5,0,0,1,3.16,1,3.75,3.75,0,0,1,.44.53,4.42,4.42,0,0,1,.32.61,3.75,3.75,0,0,1,.2.65,3.23,3.23,0,0,1,.07.69,3.14,3.14,0,0,1-.07.68,4.15,4.15,0,0,1-.2.66,4.3,4.3,0,0,1-.32.6,3.75,3.75,0,0,1-.44.53A3.52,3.52,0,0,1,48.72,30.67Z"/></g></g></svg>