<svg xmlns="http://www.w3.org/2000/svg" viewBox="0 0 70.01 70.01"><defs><style>.cls-1{fill:#3c2e26;}</style></defs><g id="圖層_2" data-name="圖層 2"><g id="圖層_1-2" data-name="圖層 1"><path class="cls-1" d="M41.27,33H37v-6.1h7.54a2,2,0,0,0,0-4H37V19.87a2,2,0,1,0-4,0v3.06H28.74a7,7,0,1,0,0,14.08H33v6.07h-7.6a2,2,0,1,0,0,4H33v3a2,2,0,0,0,4,0v-3h4.26a7,7,0,1,0,0-14.08ZM28.74,33a3,3,0,1,1,0-6.08H33V33ZM41.28,43.1H37V37h4.26a3,3,0,0,1,0,6.08Z"/><path class="cls-1" d="M35,0A35,35,0,1,0,70,35,35,35,0,0,0,35,0Zm0,63A28,28,0,1,1,63,35,28,28,0,0,1,35,63Z"/></g></g></svg>