<svg xmlns="http://www.w3.org/2000/svg" viewBox="0 0 70.72 70.23"><defs><style>.cls-1{fill:#3c2e26;}</style></defs><g id="圖層_2" data-name="圖層 2"><g id="圖層_1-2" data-name="圖層 1"><path class="cls-1" d="M59.31,21.42H48.79v-8a13.43,13.43,0,0,0-26.86,0v8H11.41A11.42,11.42,0,0,0,0,32.82v26A11.42,11.42,0,0,0,11.41,70.23h47.9A11.42,11.42,0,0,0,70.72,58.82v-26A11.42,11.42,0,0,0,59.31,21.42Zm-30.38-8a6.43,6.43,0,0,1,12.86,0v8H28.93ZM63.72,58.82a4.42,4.42,0,0,1-4.41,4.41H11.41A4.42,4.42,0,0,1,7,58.82v-26a4.41,4.41,0,0,1,4.41-4.4h47.9a4.41,4.41,0,0,1,4.41,4.4Z"/><path class="cls-1" d="M35.36,32.36a9.95,9.95,0,0,0-3.5,19.26v4.27a3.5,3.5,0,0,0,7,0V51.62a9.95,9.95,0,0,0-3.5-19.26Zm0,7a3,3,0,1,1-3,3A3,3,0,0,1,35.36,39.36Z"/></g></g></svg>