<svg xmlns="http://www.w3.org/2000/svg" viewBox="0 0 68.08 55.96"><defs><style>.cls-1{fill:#3c2e26;}</style></defs><g id="圖層_2" data-name="圖層 2"><g id="圖層_1-2" data-name="圖層 1"><path class="cls-1" d="M34,56C18.65,56,9.1,50.48,9.1,41.66c0-4.72,2.76-9.62,7.57-13.43a28.23,28.23,0,0,1,34.75,0C56.23,32,59,36.94,59,41.66,59,50.48,49.43,56,34,56Zm0-27.61c-7.59,0-18.84,5.59-18.84,13.31,0,5.66,9.46,8.19,18.84,8.19s18.84-2.53,18.84-8.19C52.88,36.3,45,28.35,34,28.35Z"/><path class="cls-1" d="M34.12,18.59c-5.74,0-10.41-4.17-10.41-9.3S28.38,0,34.12,0,44.53,4.17,44.53,9.29,39.86,18.59,34.12,18.59Zm0-12.92c-2.57,0-4.74,1.66-4.74,3.62s2.17,3.63,4.74,3.63,4.74-1.66,4.74-3.63S36.69,5.67,34.12,5.67Z"/><path class="cls-1" d="M59.06,27.4a11.39,11.39,0,0,1-5.68-1.55c-5-2.87-7-8.77-4.43-13.15a8.76,8.76,0,0,1,6.13-4.15A11.22,11.22,0,0,1,62.55,10c5,2.87,7,8.77,4.43,13.15h0A8.94,8.94,0,0,1,59.06,27.4ZM56.84,14.07a5.16,5.16,0,0,0-.79.07,3.11,3.11,0,0,0-2.19,1.4c-1,1.64.13,4.11,2.36,5.4s4.9,1,5.85-.66-.13-4.12-2.35-5.4A5.79,5.79,0,0,0,56.84,14.07Z"/><path class="cls-1" d="M9,27.4A8.94,8.94,0,0,1,1.1,23.11C-1.43,18.73.56,12.84,5.53,10A11.22,11.22,0,0,1,13,8.55a8.76,8.76,0,0,1,6.13,4.15c2.53,4.38.54,10.28-4.43,13.15A11.39,11.39,0,0,1,9,27.4Zm2.22-13.33a5.73,5.73,0,0,0-2.87.81C6.14,16.16,5.06,18.63,6,20.28s3.63,1.94,5.86.66,3.3-3.76,2.35-5.4A3.11,3.11,0,0,0,12,14.14,5.16,5.16,0,0,0,11.24,14.07Z"/></g></g></svg>