<svg xmlns="http://www.w3.org/2000/svg" viewBox="0 0 68.08 55.96"><defs><style>.cls-1{fill:#3c2e26;}</style></defs><g id="圖層_2" data-name="圖層 2"><g id="圖層_1-2" data-name="圖層 1"><path class="cls-1" d="M51.42,28.23a28.23,28.23,0,0,0-34.75,0C11.86,32,9.1,36.94,9.1,41.66,9.1,50.48,18.65,56,34,56S59,50.48,59,41.66C59,36.94,56.23,32,51.42,28.23Z"/><path class="cls-1" d="M34.12,18.59c5.74,0,10.41-4.17,10.41-9.3S39.86,0,34.12,0,23.71,4.17,23.71,9.29,28.38,18.59,34.12,18.59Z"/><path class="cls-1" d="M67.51,15.73A11.5,11.5,0,0,0,55.08,8.55,8.76,8.76,0,0,0,49,12.7a8.71,8.71,0,0,0-.53,7.38,11.14,11.14,0,0,0,5,5.77,11.4,11.4,0,0,0,5.69,1.56,10.52,10.52,0,0,0,1.78-.15A8.7,8.7,0,0,0,67,23.11,8.71,8.71,0,0,0,67.51,15.73Z"/><path class="cls-1" d="M19.66,20.08a8.71,8.71,0,0,0-.53-7.38A8.76,8.76,0,0,0,13,8.55,11.22,11.22,0,0,0,5.53,10c-5,2.87-7,8.77-4.43,13.15h0a8.7,8.7,0,0,0,6.13,4.15A10.52,10.52,0,0,0,9,27.41a11.4,11.4,0,0,0,5.69-1.56A11.14,11.14,0,0,0,19.66,20.08Z"/></g></g></svg>