<svg xmlns="http://www.w3.org/2000/svg" viewBox="0 0 60.4 64.83"><defs><style>.cls-1{fill:#3c2e26;}</style></defs><g id="圖層_2" data-name="圖層 2"><g id="圖層_1-2" data-name="圖層 1"><path class="cls-1" d="M7,32.83A23.22,23.22,0,0,1,30.2,9.63a23,23,0,0,1,14.41,5H38.24a3.5,3.5,0,0,0,0,7H52.89a3.5,3.5,0,0,0,3.5-3.5V3.5a3.5,3.5,0,0,0-7,0v6A30.21,30.21,0,0,0,0,32.83a3.5,3.5,0,0,0,7,0Z"/><path class="cls-1" d="M56.9,29.33a3.5,3.5,0,0,0-3.5,3.5A23.18,23.18,0,0,1,14.83,50.18h6.62a3.5,3.5,0,0,0,0-7H6.79a3.5,3.5,0,0,0-3.5,3.5V61.33a3.5,3.5,0,0,0,7,0v-5.8A30.19,30.19,0,0,0,60.4,32.83,3.5,3.5,0,0,0,56.9,29.33Z"/></g></g></svg>