<svg xmlns="http://www.w3.org/2000/svg" viewBox="0 0 63.68 67.52"><defs><style>.cls-1{fill:#3c2e26;}</style></defs><g id="圖層_2" data-name="圖層 2"><g id="圖層_1-2" data-name="圖層 1"><path class="cls-1" d="M51.63,43.4a12,12,0,0,0-8.3,3.33l-8.79-5.07-.13-.07L23.89,36.1a12.37,12.37,0,0,0,.23-2.3,11.92,11.92,0,0,0-.22-2.25l10.51-5.49.13-.07,8.82-5.09a12,12,0,1,0-3.89-8.84,11.88,11.88,0,0,0,.35,2.81l-8.71,5L20.65,25.35a12.06,12.06,0,1,0,0,16.94l10.49,5.47,8.76,5.06A12.05,12.05,0,1,0,51.63,43.4ZM51.53,7a5,5,0,1,1-5.06,5.06A4.56,4.56,0,0,1,46.61,11,5,5,0,0,1,51.53,7ZM17.12,33.8a5.07,5.07,0,0,1-3.56,4.81,5,5,0,0,1-1.5.25,5.06,5.06,0,1,1,0-10.11,5.12,5.12,0,0,1,1.57.27A5,5,0,0,1,17.12,33.8ZM51.63,60.52a5.07,5.07,0,0,1-4.86-3.71,5.13,5.13,0,0,1,4.86-6.41,5.06,5.06,0,0,1,0,10.12Z"/></g></g></svg>