<svg xmlns="http://www.w3.org/2000/svg" viewBox="0 0 66.3 63.4"><defs><style>.cls-1{fill:#3c2e26;}</style></defs><g id="圖層_2" data-name="圖層 2"><g id="圖層_1-2" data-name="圖層 1"><path class="cls-1" d="M51.47,63.4A3.55,3.55,0,0,1,49.84,63L33.15,54.22,16.45,63a3.49,3.49,0,0,1-5.07-3.69l3.18-18.59L1.06,27.55a3.5,3.5,0,0,1,1.94-6l18.66-2.71L30,2a3.5,3.5,0,0,1,6.28,0l8.35,16.92L63.3,21.58a3.5,3.5,0,0,1,1.94,6L51.74,40.71,54.92,59.3a3.5,3.5,0,0,1-3.45,4.1ZM33.15,46.76a3.49,3.49,0,0,1,1.63.41l12,6.33-2.3-13.42a3.48,3.48,0,0,1,1-3.09l9.75-9.5-13.47-2a3.51,3.51,0,0,1-2.64-1.92l-6-12.2-6,12.2a3.51,3.51,0,0,1-2.64,1.92L11,27.49,20.77,37a3.48,3.48,0,0,1,1,3.09L19.47,53.5l12.05-6.33A3.49,3.49,0,0,1,33.15,46.76Z"/></g></g></svg>