<svg xmlns="http://www.w3.org/2000/svg" viewBox="0 0 72.32 72.32"><defs><style>.cls-1{fill:#3c2e26;}</style></defs><g id="圖層_2" data-name="圖層 2"><g id="圖層_1-2" data-name="圖層 1"><path class="cls-1" d="M36.16,72.32A36.16,36.16,0,1,1,72.32,36.16,36.2,36.2,0,0,1,36.16,72.32ZM36.16,7A29.16,29.16,0,1,0,65.32,36.16,29.19,29.19,0,0,0,36.16,7Z"/><path class="cls-1" d="M48.64,48.17a3.44,3.44,0,0,1-1.79-.5l-12.6-7.5a3.52,3.52,0,0,1-1.71-3V14.88a3.5,3.5,0,0,1,7,0V35.17l10.89,6.49a3.5,3.5,0,0,1-1.79,6.51Z"/></g></g></svg>