<svg xmlns="http://www.w3.org/2000/svg" viewBox="0 0 65.95 78.65"><defs><style>.cls-1{fill:#3c2e26;}</style></defs><g id="圖層_2" data-name="圖層 2"><g id="圖層_1-2" data-name="圖層 1"><path class="cls-1" d="M62.45,14.36H47.39c0-.06,0-.12,0-.18a14.44,14.44,0,0,0-28.87,0c0,.06,0,.12,0,.18H3.5a3.5,3.5,0,0,0,0,7H4.59V64.23A14.44,14.44,0,0,0,19,78.65H46.94A14.44,14.44,0,0,0,61.36,64.23V21.36h1.09a3.5,3.5,0,0,0,0-7ZM54.36,64.23a7.43,7.43,0,0,1-7.42,7.42H19a7.43,7.43,0,0,1-7.42-7.42V22.85H54.36ZM25.54,14.18a7.44,7.44,0,0,1,14.87,0,1.1,1.1,0,0,0,0,.18H25.53C25.53,14.3,25.54,14.24,25.54,14.18Z"/><path class="cls-1" d="M21,60.4a3.5,3.5,0,0,0,3.5-3.5V32.12a3.5,3.5,0,0,0-7,0V56.9A3.5,3.5,0,0,0,21,60.4Z"/><path class="cls-1" d="M33,60.4a3.5,3.5,0,0,0,3.5-3.5V32.12a3.5,3.5,0,0,0-7,0V56.9A3.5,3.5,0,0,0,33,60.4Z"/><path class="cls-1" d="M45,60.4a3.5,3.5,0,0,0,3.5-3.5V32.12a3.5,3.5,0,0,0-7,0V56.9A3.5,3.5,0,0,0,45,60.4Z"/></g></g></svg>