<svg xmlns="http://www.w3.org/2000/svg" viewBox="0 0 84.89 58.11"><defs><style>.cls-1{fill:#3c2e26;}</style></defs><g id="圖層_2" data-name="圖層 2"><g id="圖層_1-2" data-name="圖層 1"><path class="cls-1" d="M71.72,58.11H13.17A13.18,13.18,0,0,1,0,45V13.17A13.19,13.19,0,0,1,13.17,0H71.72A13.19,13.19,0,0,1,84.89,13.17V45A13.18,13.18,0,0,1,71.72,58.11ZM13.17,7A6.18,6.18,0,0,0,7,13.17V45a6.17,6.17,0,0,0,6.17,6.16H71.72A6.17,6.17,0,0,0,77.89,45V13.17A6.18,6.18,0,0,0,71.72,7Z"/><polygon class="cls-1" points="35.17 20.16 32.13 37.99 36.99 37.99 40.04 20.16 35.17 20.16"/><path class="cls-1" d="M28.06,20.18,23.29,32.34l-.5-1.84a19.1,19.1,0,0,0-6.74-7.39L20.4,38h5.15l7.66-17.81Z"/><path class="cls-1" d="M20.94,21.45A2,2,0,0,0,18.82,20H11.28l-.06.36c5.87,1.42,9.75,4.85,11.36,9Z"/><path class="cls-1" d="M49.89,23.58a8.92,8.92,0,0,1,3.64.68l.44.2.66-3.86a12.66,12.66,0,0,0-4.36-.75c-4.8,0-8.19,2.42-8.22,5.89,0,2.56,2.42,4,4.26,4.84S48.84,32,48.83,32.8c0,1.19-1.51,1.74-2.9,1.74a10.12,10.12,0,0,1-4.58-.94l-.63-.28-.68,4a15.24,15.24,0,0,0,5.41.95c5.11,0,8.44-2.39,8.47-6.09,0-2-1.27-3.58-4.08-4.85-1.71-.82-2.75-1.38-2.74-2.21S48,23.58,49.89,23.58Z"/><path class="cls-1" d="M67.1,20.18H63.35a2.41,2.41,0,0,0-2.55,1.48L53.58,38h5.11l1-2.68h6.22c.15.63.6,2.67.6,2.67H71Zm-6,11.49c.4-1,1.93-5,1.93-5s.4-1,.65-1.71L64,26.52s.93,4.26,1.13,5.15Z"/></g></g></svg>