<?xml version="1.0" encoding="utf-8"?>
<!-- Generator: Adobe Illustrator 25.0.1, SVG Export Plug-In . SVG Version: 6.00 Build 0)  -->
<svg version="1.1" id="圖層_1" xmlns="http://www.w3.org/2000/svg" xmlns:xlink="http://www.w3.org/1999/xlink" x="0px" y="0px"
	 viewBox="0 0 62.2 62.2" style="enable-background:new 0 0 62.2 62.2;" xml:space="preserve">
<style type="text/css">
	.st0{fill:#FFFFFF;}
</style>
<g id="圖層_2_1_">
	<g id="圖層_1-2">
		<path class="st0" d="M22.1,62.2c-6,0-11-4.8-11.2-10.8c-2.8-0.1-5.5-1.3-7.5-3.3c-4.4-4.4-4.4-11.5,0-15.9c2.9-2.9,7.1-4,11.1-2.9
			l14.9-14.9c-1.7-6,1.8-12.2,7.8-13.9S49.3,2.2,51,8.2c0.2,0.8,0.4,1.7,0.4,2.6c2.8,0.1,5.5,1.3,7.5,3.3l0,0
			c4.4,4.4,4.4,11.5,0,15.9c-2.9,2.9-7.2,4-11.1,2.9L32.9,47.8c1.7,6-1.7,12.2-7.7,14C24.2,62.1,23.1,62.2,22.1,62.2z M15.5,43.2
			c0.9,0,1.8,0.4,2.5,1c1.2,1.2,1.4,3,0.5,4.4c-1.3,2-0.7,4.6,1.3,5.9c2,1.3,4.6,0.7,5.9-1.3c0.9-1.4,0.9-3.1,0.1-4.5
			c-0.8-1.4-0.6-3.1,0.5-4.3l18.2-18.2c1.1-1.1,2.9-1.3,4.2-0.5c1.9,1.4,4.6,0.9,6-1c1.3-1.8,1-4.3-0.7-5.7l0,0
			c-1.4-1.4-3.7-1.7-5.4-0.5c-1.6,1.1-3.8,0.7-4.9-0.9c-0.8-1.2-0.8-2.7,0-3.9c1.3-2,0.8-4.6-1.2-5.9S38,6.9,36.7,8.8
			c-0.9,1.4-1,3.1-0.2,4.5c0.8,1.4,0.6,3.1-0.5,4.2L17.7,35.9c-1.1,1.1-2.9,1.4-4.2,0.5c-1.7-1-3.8-0.7-5.2,0.7
			c-1.6,1.7-1.6,4.3,0,6c1.4,1.4,3.6,1.7,5.3,0.6C14.1,43.4,14.8,43.2,15.5,43.2L15.5,43.2z"/>
	</g>
</g>
</svg>
