<svg xmlns="http://www.w3.org/2000/svg" viewBox="0 0 81.26 59.81"><defs><style>.cls-1{fill:#3c2e26;}</style></defs><g id="圖層_2" data-name="圖層 2"><g id="圖層_1-2" data-name="圖層 1"><path class="cls-1" d="M78.77,24.48a3.92,3.92,0,0,0,2.49-3.76V4A3.79,3.79,0,0,0,77.65,0h-74A3.79,3.79,0,0,0,0,4V20.72a3.92,3.92,0,0,0,2.49,3.76,5.86,5.86,0,0,1,0,10.85A3.92,3.92,0,0,0,0,39.09V55.85a3.8,3.8,0,0,0,3.61,4h74a3.8,3.8,0,0,0,3.61-4V39.09a3.92,3.92,0,0,0-2.49-3.76,5.86,5.86,0,0,1,0-10.85ZM67.91,29.9A13.92,13.92,0,0,0,74,41.62V51.9H7.22V41.62A13.9,13.9,0,0,0,13.35,29.9,13.9,13.9,0,0,0,7.22,18.19V7.91H74V18.19A13.91,13.91,0,0,0,67.91,29.9Z"/><path class="cls-1" d="M48.55,30a14.13,14.13,0,0,0-17.41,0,8.91,8.91,0,0,0-3.79,6.73c0,4.42,4.78,7.18,12.47,7.18s12.53-2.76,12.53-7.18A8.92,8.92,0,0,0,48.55,30Z"/><path class="cls-1" d="M39.88,25.19a5,5,0,0,0,5.22-4.66,5,5,0,0,0-5.22-4.65,5,5,0,0,0-5.21,4.65A5,5,0,0,0,39.88,25.19Z"/><path class="cls-1" d="M50.38,20.16a4.26,4.26,0,0,0-3.31,5.78,5.59,5.59,0,0,0,2.51,2.89,5.78,5.78,0,0,0,2.85.78,5.35,5.35,0,0,0,.89-.08,4.24,4.24,0,0,0,3.29-5.77A5.77,5.77,0,0,0,50.38,20.16Z"/><path class="cls-1" d="M32.64,25.94a4.25,4.25,0,0,0-3.34-5.78,5.63,5.63,0,0,0-3.74.73c-2.51,1.43-3.51,4.39-2.22,6.58a4.34,4.34,0,0,0,3.07,2.08,4.39,4.39,0,0,0,.89.06,5.84,5.84,0,0,0,2.85-.78A5.64,5.64,0,0,0,32.64,25.94Z"/></g></g></svg>