<svg xmlns="http://www.w3.org/2000/svg" viewBox="0 0 66.67 64.45"><defs><style>.cls-1{fill:#3c2e26;}</style></defs><g id="圖層_2" data-name="圖層 2"><g id="圖層_1-2" data-name="圖層 1"><g id="圖層_2-2" data-name="圖層 2"><g id="圖層_1-2-2" data-name="圖層 1-2"><path class="cls-1" d="M43.79,27.43a16,16,0,1,0-22.63-.23l.63.61C9.1,32.79,0,45.76,0,61a3.5,3.5,0,0,0,3.5,3.5H63.17a3.5,3.5,0,0,0,3.5-3.5C66.67,45.35,57.07,32.12,43.79,27.43ZM32.6,7.12a9,9,0,1,1-9,9A9,9,0,0,1,32.6,7.12ZM7.2,57.45c1.61-14,12.72-24.81,26.14-24.81S57.86,43.49,59.47,57.45Z"/></g></g></g></g></svg>