<svg xmlns="http://www.w3.org/2000/svg" viewBox="0 0 60.25 62.85"><defs><style>.cls-1{fill:#3c2e26;}</style></defs><g id="圖層_2" data-name="圖層 2"><g id="圖層_1-2" data-name="圖層 1"><path class="cls-1" d="M57.25,62.85H3a3,3,0,0,1-3-3V3A3,3,0,0,1,3,0H57.25a3,3,0,0,1,3,3V59.85A3,3,0,0,1,57.25,62.85ZM6,56.85H54.25V6H6Z"/><path class="cls-1" d="M45.68,22.32H22.6a3,3,0,0,1,0-6H45.68a3,3,0,0,1,0,6Z"/><path class="cls-1" d="M15.12,22.32A3,3,0,0,1,13,21.44a2.74,2.74,0,0,1-.38-.45,3.67,3.67,0,0,1-.27-.52,2.78,2.78,0,0,1-.17-.56,3,3,0,0,1-.06-.59,3.16,3.16,0,0,1,.23-1.15,3.1,3.1,0,0,1,.27-.51A2.82,2.82,0,0,1,13,17.2a3.16,3.16,0,0,1,.45-.37,3.74,3.74,0,0,1,.52-.28,3.62,3.62,0,0,1,.56-.17,2.93,2.93,0,0,1,1.18,0,3.62,3.62,0,0,1,.56.17,3.15,3.15,0,0,1,.51.28,2.74,2.74,0,0,1,.83.83,2.53,2.53,0,0,1,.28.51,3.16,3.16,0,0,1,.23,1.15,3,3,0,0,1-.06.59,2.78,2.78,0,0,1-.17.56,2.92,2.92,0,0,1-.28.52,2.69,2.69,0,0,1-.37.45,2.82,2.82,0,0,1-.46.38,3.1,3.1,0,0,1-.51.27,2.26,2.26,0,0,1-.56.17A3,3,0,0,1,15.12,22.32Z"/><path class="cls-1" d="M45.68,34.43H22.6a3,3,0,0,1,0-6H45.68a3,3,0,0,1,0,6Z"/><path class="cls-1" d="M15.12,34.43A3,3,0,0,1,13,29.31a3.23,3.23,0,0,1,.45-.38,3.67,3.67,0,0,1,.52-.27,2.26,2.26,0,0,1,.56-.17,3,3,0,1,1,.59,5.94Z"/></g></g></svg>