<svg xmlns="http://www.w3.org/2000/svg" viewBox="0 0 62.64 65.01"><defs><style>.cls-1{fill:#3c2e26;}</style></defs><g id="圖層_2" data-name="圖層 2"><g id="圖層_1-2" data-name="圖層 1"><g id="圖層_2-2" data-name="圖層 2"><g id="圖層_1-2-2" data-name="圖層 1-2"><path class="cls-1" d="M31.31,65A3.51,3.51,0,0,1,29,64.1C27.9,63.14,3.36,40.5.37,20.87a16.42,16.42,0,0,1-.24-5.53A12.94,12.94,0,0,1,1.78,9.71,17.34,17.34,0,0,1,31.32,7.08,17.32,17.32,0,0,1,60.89,9.79a12.87,12.87,0,0,1,1.6,5.38,15.72,15.72,0,0,1,.15,2.17,17.88,17.88,0,0,1-.4,3.64C59.17,40.59,34.71,63.14,33.67,64.1A3.54,3.54,0,0,1,31.31,65Zm-14-58A10.38,10.38,0,0,0,8,12.9a1.9,1.9,0,0,1-.2.37A6.08,6.08,0,0,0,7.09,16a.33.33,0,0,1,0,.14c0,.41-.08.83-.09,1.25a10.59,10.59,0,0,0,.23,2.17v.22c2.07,13.93,18,30.87,24,36.92,6.08-6,21.9-22.92,24-36.84v-.23a10,10,0,0,0,.26-2.24,11.9,11.9,0,0,0-.1-1.34v-.15a6,6,0,0,0-.69-2.56c-.07-.11-.13-.23-.19-.34A10.31,10.31,0,0,0,35,17a3.52,3.52,0,0,1-1.56,2.79l-.16.11a3.52,3.52,0,0,1-3.93,0l-.15-.11A3.52,3.52,0,0,1,27.64,17,10.28,10.28,0,0,0,17.33,7Z"/></g></g></g></g></svg>