<svg xmlns="http://www.w3.org/2000/svg" viewBox="0 0 77.4 51.07"><defs><style>.cls-1{fill:#3c2e26;}</style></defs><g id="圖層_2" data-name="圖層 2"><g id="圖層_1-2" data-name="圖層 1"><path class="cls-1" d="M74.4,51.07H3a3,3,0,0,1-3-3V33.51a3,3,0,0,1,2.08-2.86,5.33,5.33,0,0,0,0-10.23A3,3,0,0,1,0,17.56V3A3,3,0,0,1,3,0H74.4a3,3,0,0,1,3,3V17.56a3,3,0,0,1-2.08,2.86,5.33,5.33,0,0,0,0,10.23,3,3,0,0,1,2.08,2.86V48.07A3,3,0,0,1,74.4,51.07ZM6,45.07H71.4v-9.6a11.31,11.31,0,0,1,0-19.87V6H6v9.6A11.31,11.31,0,0,1,6,35.47Z"/><g id="圖層_2-2" data-name="圖層 2"><g id="圖層_1-2-2" data-name="圖層 1-2"><path class="cls-1" d="M46.62,25.65a14.16,14.16,0,0,0-17.41,0,8.91,8.91,0,0,0-3.79,6.73c0,4.42,4.79,7.18,12.48,7.18s12.52-2.76,12.52-7.18A8.92,8.92,0,0,0,46.62,25.65Z"/><path class="cls-1" d="M38,20.82a5,5,0,0,0,5.21-4.66A5,5,0,0,0,38,11.51a5,5,0,0,0-5.22,4.65A5,5,0,0,0,38,20.82Z"/><path class="cls-1" d="M54.68,19.39a5.75,5.75,0,0,0-6.22-3.6,4.24,4.24,0,0,0-3.31,5.78,5.53,5.53,0,0,0,2.5,2.89,5.84,5.84,0,0,0,2.85.78,5.26,5.26,0,0,0,.89-.08,4.22,4.22,0,0,0,3.29-5.77Z"/><path class="cls-1" d="M30.71,21.57a4.36,4.36,0,0,0-.26-3.7,4.42,4.42,0,0,0-3.07-2.08,5.65,5.65,0,0,0-3.75.73c-2.5,1.44-3.5,4.39-2.22,6.59h0a4.38,4.38,0,0,0,3.07,2.07,4.49,4.49,0,0,0,.89.06,5.81,5.81,0,0,0,2.85-.78A5.55,5.55,0,0,0,30.71,21.57Z"/></g></g></g></g></svg>