<svg xmlns="http://www.w3.org/2000/svg" viewBox="0 0 76.45 71.11"><defs><style>.cls-1,.cls-2{fill:#3c2e26;}.cls-2{stroke:#fff;stroke-miterlimit:10;stroke-width:3px;}</style></defs><g id="圖層_2" data-name="圖層 2"><g id="圖層_1-2" data-name="圖層 1"><g id="圖層_2-2" data-name="圖層 2"><g id="圖層_1-2-2" data-name="圖層 1-2"><path class="cls-1" d="M43.79,34.08a16,16,0,1,0-22.63-.23l.63.61C9.1,39.44,0,52.41,0,67.6a3.5,3.5,0,0,0,3.5,3.5H62.33a2.94,2.94,0,0,0,.42,0,2.94,2.94,0,0,0,.42,0,3.5,3.5,0,0,0,3.5-3.5C66.67,52,57.07,38.77,43.79,34.08ZM32.6,13.77a9,9,0,1,1-9,9A9,9,0,0,1,32.6,13.77ZM7.2,64.1c1.61-14,12.72-24.81,26.14-24.81S57.86,50.14,59.47,64.1Z"/></g></g><path class="cls-2" d="M51.5,27.42l.18-.5a6.14,6.14,0,0,1,2.63-4,8,8,0,0,1,3.93-1.27,10,10,0,0,0,3.84-.88,4.05,4.05,0,0,0,2.37-2.91,4.41,4.41,0,0,0-.39-3.51,5.06,5.06,0,0,0-3.26-2,6.69,6.69,0,0,0-3.66-.12,3.24,3.24,0,0,0-1.74,1.17l-.38.72a7.69,7.69,0,0,1-2,2.19,2.59,2.59,0,0,1-2.19.38,9.89,9.89,0,0,1-3-1.55c-2.31-1.61-3.29-3.13-2.93-4.58a5.26,5.26,0,0,1,.86-1.85l1-1.51a15.24,15.24,0,0,1,1.94-2A14.82,14.82,0,0,1,52,3a14.87,14.87,0,0,1,4.62-1.31A16,16,0,0,1,62.73,2a15.29,15.29,0,0,1,10,7.05A14.36,14.36,0,0,1,74.52,20.2,13.25,13.25,0,0,1,72.28,25,11.25,11.25,0,0,1,69,28.12a16.39,16.39,0,0,1-6.11,2.29l-1.1.07a13.07,13.07,0,0,1-.5,1.64,3.37,3.37,0,0,1-.88,1.1,2.78,2.78,0,0,1-1.83.57,12.7,12.7,0,0,1-3-.44,11.7,11.7,0,0,1-2.9-1.05,2.52,2.52,0,0,1-1.29-1.47,3.91,3.91,0,0,1-.21-1.5A12.9,12.9,0,0,1,51.5,27.42Zm-3,11.34a3.11,3.11,0,0,1,2.17-1,14.45,14.45,0,0,1,4.23.57,5.73,5.73,0,0,1,3.75,2.23c.62,1,.65,2.75.06,5.13a8.92,8.92,0,0,1-1.57,3.64,3.31,3.31,0,0,1-2.35,1.19,15,15,0,0,1-4.16-.58,6.27,6.27,0,0,1-3.89-2.37,5.32,5.32,0,0,1-.17-4l.25-1a20.16,20.16,0,0,1,.64-2.21A5.4,5.4,0,0,1,48.45,38.76Z"/></g></g></svg>