<svg xmlns="http://www.w3.org/2000/svg" width="56" height="24.776" viewBox="0 0 56 24.776">
  <g id="bow" transform="translate(-957 -1504.612)">
    <path id="Path_458" data-name="Path 458" d="M13,0c7.18,0,13,7.945,13,12S20.18,24,13,24,0,27.739,0,12,5.82,0,13,0Z" transform="translate(957 1505)" fill="#ee7373"/>
    <path id="Path_459" data-name="Path 459" d="M13,0C5.82,0,0,7.945,0,12S5.82,24,13,24s13,3.739,13-12S20.18,0,13,0Z" transform="translate(987 1505)" fill="#ee7373"/>
    <rect id="Rectangle_733" data-name="Rectangle 733" width="10" height="16" rx="4" transform="translate(980 1509)" fill="#ee7373"/>
    <path id="Path_461" data-name="Path 461" d="M0,0A28.614,28.614,0,0,0-.846,6.017,15.626,15.626,0,0,0,0,11" transform="translate(980.5 1511.5)" fill="none" stroke="#fff" stroke-linecap="round" stroke-width="1"/>
    <path id="Path_462" data-name="Path 462" d="M0,0A22.974,22.974,0,0,1,.8,5.522,22.382,22.382,0,0,1,0,11" transform="translate(989.5 1511.5)" fill="none" stroke="#fff" stroke-linecap="round" stroke-width="1"/>
  </g>
</svg>
