<svg xmlns="http://www.w3.org/2000/svg" width="30" height="30" viewBox="0 0 30 30">
  <g id="Group_515" data-name="Group 515" transform="translate(-239 -863)">
    <g id="Group_495" data-name="Group 495" transform="translate(-586 -69)">
      <g id="Ellipse_77" data-name="Ellipse 77" transform="translate(825 932)" fill="#fff" stroke="#ffa12c" stroke-width="1">
        <circle cx="15" cy="15" r="15" stroke="none"/>
        <circle cx="15" cy="15" r="14.5" fill="none"/>
      </g>
    </g>
    <g id="圖層_2" data-name="圖層 2" transform="translate(243.188 869.511)">
      <g id="圖層_1" data-name="圖層 1" transform="translate(0.001)">
        <path id="Path_467" data-name="Path 467" d="M16.883,32.8c-4.8,0-7.783-1.725-7.783-4.482a5.584,5.584,0,0,1,2.366-4.2,8.824,8.824,0,0,1,10.862,0,5.568,5.568,0,0,1,2.369,4.2C24.7,31.074,21.706,32.8,16.883,32.8Zm0-8.63c-2.372,0-5.889,1.747-5.889,4.16,0,1.769,2.957,2.56,5.889,2.56s5.889-.791,5.889-2.56c.013-1.688-2.451-4.173-5.889-4.173Z" transform="translate(-6.256 -15.295)" fill="#ffa12c"/>
        <path id="Path_468" data-name="Path 468" d="M26.964,5.811A3.1,3.1,0,0,1,23.71,2.9,3.1,3.1,0,0,1,26.964,0a3.1,3.1,0,0,1,3.254,2.9A3.1,3.1,0,0,1,26.964,5.811Zm0-4.039A1.362,1.362,0,0,0,25.482,2.9a1.364,1.364,0,0,0,1.482,1.135A1.361,1.361,0,0,0,28.446,2.9,1.359,1.359,0,0,0,26.964,1.772Z" transform="translate(-16.299)" fill="#ffa12c"/>
        <path id="Path_469" data-name="Path 469" d="M51.339,14.351a3.56,3.56,0,0,1-1.775-.484,3.064,3.064,0,0,1-1.385-4.11,2.738,2.738,0,0,1,1.916-1.3,3.507,3.507,0,0,1,2.335.453,3.064,3.064,0,0,1,1.385,4.11h0a2.794,2.794,0,0,1-2.476,1.328Zm-.694-4.167a1.613,1.613,0,0,0-.247.022.972.972,0,0,0-.685.438c-.313.513.041,1.285.738,1.688a1.342,1.342,0,0,0,1.829-.206,1.349,1.349,0,0,0-.735-1.688,1.81,1.81,0,0,0-.9-.253Z" transform="translate(-32.879 -5.786)" fill="#ffa12c"/>
        <path id="Path_470" data-name="Path 470" d="M2.814,14.351A2.794,2.794,0,0,1,.345,13.01a3.066,3.066,0,0,1,1.385-4.1,3.507,3.507,0,0,1,2.335-.453,2.738,2.738,0,0,1,1.916,1.3A3.083,3.083,0,0,1,4.6,13.866a3.56,3.56,0,0,1-1.782.485Zm.694-4.167a1.791,1.791,0,0,0-.9.253,1.356,1.356,0,0,0-.735,1.688,1.352,1.352,0,0,0,1.832.206,1.348,1.348,0,0,0,.735-1.688.972.972,0,0,0-.691-.438,1.613,1.613,0,0,0-.238-.022Z" transform="translate(-0.001 -5.786)" fill="#ffa12c"/>
      </g>
    </g>
  </g>
</svg>
