<svg xmlns="http://www.w3.org/2000/svg" width="81" height="27.637" viewBox="0 0 81 27.637">
  <g id="hat1" transform="translate(-650 -814.363)">
    <rect id="Rectangle_723" data-name="Rectangle 723" width="81" height="6" rx="3" transform="translate(650 836)" fill="#ac8773"/>
    <path id="Subtraction_14" data-name="Subtraction 14" d="M-1506,66h-40V63c0-.657-.006-1.328-.012-1.976v-.012a41.825,41.825,0,0,1,.542-8.961,12.523,12.523,0,0,1,1.447-3.82,9.559,9.559,0,0,1,2.858-3.034,6.908,6.908,0,0,1,2.673-.554c2.741,0,5.17,1.736,7.313,3.267,1.819,1.3,3.537,2.528,5.179,2.528,1.407,0,2.675-1.214,4.142-2.62,1.825-1.749,4.1-3.926,7.453-4.442.113-.008.227-.013.338-.013,3.315,0,5.231,3.765,6.253,6.924A43.843,43.843,0,0,1-1506,63v3Z" transform="translate(2216 771)" fill="#ac8773"/>
    <line id="Line_50" data-name="Line 50" x2="35" transform="translate(672.5 836.5)" fill="none" stroke="#fff" stroke-linecap="round" stroke-width="1"/>
  </g>
</svg>
