<svg xmlns="http://www.w3.org/2000/svg" width="36.533" height="100.506" viewBox="0 0 36.533 100.506">
  <g id="neckless" transform="translate(-818.233 -981.293)">
    <path id="Subtraction_17" data-name="Subtraction 17" d="M18.684,83.431h0L1.545,66.776.218,65.485,0,65.274H.254L11.282,0h13.97L36.279,65.274h.254l-.216.221-1.26,1.281L18.685,83.429Z" transform="translate(818.233 998.368)" fill="#ffb47a"/>
    <path id="Path_456" data-name="Path 456" d="M-1538.239,59.075h-14.95l-4.525-9.73a4.643,4.643,0,0,1,.178-4.266A4,4,0,0,1-1554.067,43h16.707a4,4,0,0,1,3.468,2.078,4.642,4.642,0,0,1,.179,4.266l-4.525,9.729Z" transform="translate(2382.227 938.292)" fill="#ffb47a"/>
    <line id="Line_53" data-name="Line 53" x2="14" transform="translate(829.5 997.5)" fill="none" stroke="#fff" stroke-linecap="round" stroke-width="1"/>
  </g>
</svg>
