<svg xmlns="http://www.w3.org/2000/svg" viewBox="0 0 69.66 22.8"><defs><style>.cls-1,.cls-2{fill:#7fddd6;}.cls-1{stroke:#fff;stroke-miterlimit:10;}</style></defs><g id="圖層_2" data-name="圖層 2"><g id="圖層_1-2" data-name="圖層 1"><g id="圖層_2-2" data-name="圖層 2"><g id="圖層_1-2-2" data-name="圖層 1-2"><path class="cls-1" d="M16.65,18.63a5.79,5.79,0,0,1,.37-8,5.81,5.81,0,1,1,9.79-6.12l16.54,1a5.81,5.81,0,1,1,8.88,7.38,5.75,5.75,0,0,1,1.27,4h0a5.81,5.81,0,0,1-11.07,2.06L25.91,18a5.81,5.81,0,0,1-9.26.68Z"/></g></g><circle class="cls-2" cx="2.14" cy="2.14" r="2.14"/><circle class="cls-2" cx="8.61" cy="7.55" r="2.14"/><circle class="cls-2" cx="67.52" cy="4.53" r="2.14"/><circle class="cls-2" cx="59.85" cy="9.27" r="2.14"/></g></g></svg>