<svg xmlns="http://www.w3.org/2000/svg" viewBox="0 0 89.32 34.64"><defs><style>.cls-1{fill:#f2da75;stroke:#fff;stroke-miterlimit:10;}</style></defs><g id="圖層_2" data-name="圖層 2"><g id="圖層_1-2" data-name="圖層 1"><polygon class="cls-1" points="32.33 21.65 27.1 20.41 23.11 24.02 22.67 18.66 18.01 15.98 22.97 13.91 24.08 8.64 27.59 12.72 32.93 12.15 30.14 16.74 32.33 21.65"/><polygon class="cls-1" points="49.63 33.54 44.94 27.71 37.48 28.26 41.57 22 38.74 15.07 45.96 17.03 51.67 12.19 52.04 19.67 58.41 23.61 51.41 26.27 49.63 33.54"/><polygon class="cls-1" points="73.76 20.66 68.06 19.99 64.27 24.31 63.14 18.67 57.86 16.4 62.87 13.59 63.4 7.87 67.62 11.77 73.23 10.5 70.82 15.72 73.76 20.66"/><polygon class="cls-1" points="11.05 14.25 7.29 12.52 3.72 14.64 4.21 10.52 1.09 7.79 5.16 6.98 6.79 3.17 8.82 6.79 12.95 7.16 10.13 10.21 11.05 14.25"/><polygon class="cls-1" points="86.37 12.21 82.61 10.48 79.04 12.6 79.53 8.48 76.41 5.75 80.48 4.94 82.11 1.13 84.14 4.74 88.27 5.12 85.45 8.17 86.37 12.21"/></g></g></svg>