<svg enable-background="new 0 0 36 36" height="512" viewBox="0 0 36 36" width="512" xmlns="http://www.w3.org/2000/svg"><path d="m3.442 23.883c6.061 3.333 8.497 8.761 11.417 10.367 2.921 1.606 9.978 3.299 17.366-10.137s.221-19.945-2.992-21.712c-15.042-8.27-36.525 15.58-25.791 21.482z" fill="#efefef"/><path d="m29.25 11.062c0 3.551-4.25 7.188-4.25 7.188s-4.25-3.636-4.25-7.188c0-2.382 1.903-4.312 4.25-4.312s4.25 1.931 4.25 4.312z" fill="#2fdf84"/><path d="m11.25 24.188c0 2.007-2.25 4.062-2.25 4.062s-2.25-2.055-2.25-4.062c0-1.346 1.007-2.438 2.25-2.438s2.25 1.091 2.25 2.438z" fill="#f3f3f1"/><path d="m23 11.062c0-1.984 1.328-3.637 3.125-4.14-.361-.101-.733-.172-1.125-.172-2.347 0-4.25 1.931-4.25 4.312 0 3.551 4.25 7.188 4.25 7.188s.486-.419 1.125-1.102c-1.259-1.344-3.125-3.73-3.125-6.086z" fill="#00b871"/><path d="m10.125 22.088c-.332-.209-.713-.338-1.125-.338-1.243 0-2.25 1.091-2.25 2.438 0 2.007 2.25 4.062 2.25 4.062s.562-.514 1.125-1.279c-.563-.764-1.125-1.78-1.125-2.783 0-.9.455-1.678 1.125-2.1z" fill="#d5dbe1"/><g fill="#a4afc1"><path d="m25.046 24.75c-.827 0-1.5-.673-1.5-1.5s.673-1.5 1.5-1.5 1.5.673 1.5 1.5-.672 1.5-1.5 1.5zm0-2c-.276 0-.5.225-.5.5s.224.5.5.5.5-.225.5-.5-.224-.5-.5-.5z"/><path d="m30.442-.003h1v2h-1z" transform="matrix(.73 -.684 .684 .73 7.675 21.419)"/><path d="m34.371 4.195h1v2h-1z" transform="matrix(.73 -.683 .683 .73 5.864 25.234)"/><path d="m29.631 4.555h2v1h-2z" transform="matrix(.73 -.683 .683 .73 4.811 22.294)"/><path d="m33.828.626h2v1h-2z" transform="matrix(.73 -.683 .683 .73 8.629 24.102)"/></g><path d="m25 19c-.174 0-.347-.06-.487-.18-.185-.158-4.513-3.905-4.513-7.758 0-2.791 2.243-5.062 5-5.062s5 2.271 5 5.062c0 3.853-4.328 7.6-4.513 7.758-.14.12-.313.18-.487.18zm0-11.5c-1.93 0-3.5 1.598-3.5 3.562 0 2.482 2.436 5.127 3.5 6.164 1.064-1.037 3.5-3.682 3.5-6.164 0-1.964-1.57-3.562-3.5-3.562z"/><path d="m25 13c-1.103 0-2-.897-2-2s.897-2 2-2 2 .897 2 2-.897 2-2 2zm0-2.5c-.276 0-.5.225-.5.5s.224.5.5.5.5-.225.5-.5-.224-.5-.5-.5z"/><path d="m9 29c-.181 0-.362-.065-.506-.196-.101-.093-2.494-2.305-2.494-4.616 0-1.758 1.346-3.188 3-3.188s3 1.43 3 3.188c0 2.312-2.393 4.523-2.494 4.616-.144.131-.325.196-.506.196zm0-6.5c-.827 0-1.5.757-1.5 1.688 0 1.055.851 2.255 1.499 2.987.649-.735 1.501-1.938 1.501-2.987 0-.931-.673-1.688-1.5-1.688z"/><path d="m21.654 30h-12.654v-1.5h12.654c.142 0 .205-.087.233-.16s.04-.18-.065-.274l-6.651-6.019c-.541-.488-.721-1.244-.459-1.925.263-.682.904-1.122 1.634-1.122h8.654v1.5h-8.654c-.142 0-.205.087-.233.16s-.04.18.065.274l6.651 6.019c.541.488.721 1.244.459 1.925-.263.682-.904 1.122-1.634 1.122z"/></svg>